<svg width="19" height="18" viewBox="0 0 19 18" fill="none" xmlns="http://www.w3.org/2000/svg">
<path d="M11.75 17.0625H7.25C3.1775 17.0625 1.4375 15.3225 1.4375 11.25V6.75C1.4375 2.6775 3.1775 0.9375 7.25 0.9375H8.75C9.0575 0.9375 9.3125 1.1925 9.3125 1.5C9.3125 1.8075 9.0575 2.0625 8.75 2.0625H7.25C3.7925 2.0625 2.5625 3.2925 2.5625 6.75V11.25C2.5625 14.7075 3.7925 15.9375 7.25 15.9375H11.75C15.2075 15.9375 16.4375 14.7075 16.4375 11.25V9.75C16.4375 9.4425 16.6925 9.1875 17 9.1875C17.3075 9.1875 17.5625 9.4425 17.5625 9.75V11.25C17.5625 15.3225 15.8225 17.0625 11.75 17.0625Z" fill="#006FE8"/>
<path d="M6.875 13.2674C6.4175 13.2674 5.9975 13.1024 5.69 12.8024C5.3225 12.4349 5.165 11.9024 5.2475 11.3399L5.57 9.08242C5.63 8.64742 5.915 8.08492 6.2225 7.77742L12.1325 1.86742C13.625 0.374922 15.14 0.374922 16.6325 1.86742C17.45 2.68492 17.8175 3.51742 17.7425 4.34992C17.675 5.02492 17.315 5.68492 16.6325 6.35992L10.7225 12.2699C10.415 12.5774 9.8525 12.8624 9.4175 12.9224L7.16 13.2449C7.0625 13.2674 6.965 13.2674 6.875 13.2674ZM12.9275 2.66242L7.0175 8.57242C6.875 8.71492 6.71 9.04492 6.68 9.23992L6.3575 11.4974C6.3275 11.7149 6.3725 11.8949 6.485 12.0074C6.5975 12.1199 6.7775 12.1649 6.995 12.1349L9.2525 11.8124C9.4475 11.7824 9.785 11.6174 9.92 11.4749L15.83 5.56492C16.3175 5.07742 16.5725 4.64242 16.61 4.23742C16.655 3.74992 16.4 3.23242 15.83 2.65492C14.63 1.45492 13.805 1.79242 12.9275 2.66242Z" fill="#006FE8"/>
<path d="M15.3875 7.3727C15.335 7.3727 15.2825 7.3652 15.2375 7.3502C13.265 6.7952 11.6975 5.2277 11.1425 3.2552C11.06 2.9552 11.2325 2.6477 11.5325 2.5577C11.8325 2.4752 12.14 2.6477 12.2225 2.9477C12.6725 4.5452 13.94 5.8127 15.5375 6.2627C15.8375 6.3452 16.01 6.6602 15.9275 6.9602C15.86 7.2152 15.635 7.3727 15.3875 7.3727Z" fill="#006FE8"/>
</svg>
