<svg width="20" height="20" viewBox="0 0 20 20" fill="none" xmlns="http://www.w3.org/2000/svg">
<path fill-rule="evenodd" clip-rule="evenodd" d="M2.5 13.125C2.5 12.7798 2.77982 12.5 3.125 12.5H6.875C7.22018 12.5 7.5 12.7798 7.5 13.125C7.5 13.4702 7.22018 13.75 6.875 13.75H3.125C2.77982 13.75 2.5 13.4702 2.5 13.125Z" fill="black"/>
<path fill-rule="evenodd" clip-rule="evenodd" d="M2.5 9.375C2.5 9.02982 2.77982 8.75 3.125 8.75H11.875C12.2202 8.75 12.5 9.02982 12.5 9.375C12.5 9.72018 12.2202 10 11.875 10H3.125C2.77982 10 2.5 9.72018 2.5 9.375Z" fill="black"/>
<path fill-rule="evenodd" clip-rule="evenodd" d="M2.5 5.625C2.5 5.27982 2.77982 5 3.125 5H16.875C17.2202 5 17.5 5.27982 17.5 5.625C17.5 5.97018 17.2202 6.25 16.875 6.25H3.125C2.77982 6.25 2.5 5.97018 2.5 5.625Z" fill="black"/>
</svg>
